<?xml version="1.0" encoding="UTF-8"?>
<svg width="100px" height="75px" viewBox="0 0 100 75" version="1.1" xmlns="http://www.w3.org/2000/svg" xmlns:xlink="http://www.w3.org/1999/xlink">
    <title>Coiled_logo</title>
    <g id="Style-Guide" stroke="none" stroke-width="1" fill="none" fill-rule="evenodd">
        <g id="Coiled_StyleGuide_Nav" transform="translate(-215.000000, -526.000000)" fill="#4B4B3E" fill-rule="nonzero">
            <g id="Home_Landing" transform="translate(131.000000, 456.000000)">
                <g id="Coiled_logo" transform="translate(84.000000, 70.000000)">
                    <path d="M17.2882096,42.8115325 C7.74019509,42.8115325 0,35.094552 0,25.5751741 C0,16.0557963 7.74019509,8.33881579 17.2882096,8.33881579 L17.2882096,42.8115325 Z M31.5269289,47.6006192 C31.528158,40.4983102 27.1600762,34.1222586 20.5240175,31.5397639 L20.5240175,63.6556695 C27.1578289,61.0736111 31.5253499,54.7006823 31.5269289,47.6006192 L31.5269289,47.6006192 Z M20.5443959,22.5391834 C26.7371101,22.4691188 31.7203443,17.4441301 31.7203443,11.2695917 C31.7203443,5.09505336 26.7371101,0.0700646262 20.5443959,0 L20.5443959,22.5391834 Z M9.27947598,61.9388545 C9.2819309,67.444417 12.3723478,72.4862957 17.2852984,75 L17.2852984,48.8733553 C12.3707154,51.3875219 9.27996072,56.4316323 9.27947598,61.9388545 L9.27947598,61.9388545 Z M53.0043668,43.2091718 C56.5123726,43.2091718 59.0669578,41.0990712 59.580786,37.7931502 L58.0567686,37.4129257 C57.6564774,40.0919118 55.6928675,41.8029218 53.0043668,41.8029218 C49.6317322,41.8029218 47.4730713,39.5607585 47.4585153,36.0444079 C47.4439592,32.5280573 49.441048,30.2670279 52.5851528,30.2670279 C54.7962154,30.2670279 56.4745269,31.6732779 56.874818,33.9168924 L58.3799127,33.5555341 C57.7700146,30.6849845 55.5021834,28.8607779 52.5851528,28.8607779 C48.4687045,28.8607779 45.8762737,31.6544118 45.8762737,36.0444079 C45.8762737,40.434404 48.6404658,43.2091718 53.0043668,43.2091718 Z M65.6593886,43.1133901 C68.7671033,43.1133901 70.8064047,41.061339 70.8064047,37.9455302 C70.8064047,34.8297214 68.768559,32.7573529 65.6593886,32.7573529 C62.5502183,32.7573529 60.5327511,34.809404 60.5327511,37.9455302 C60.5327511,41.0816563 62.5720524,43.1133901 65.6593886,43.1133901 Z M65.6593886,41.8072755 C63.4294032,41.8072755 61.9810771,40.2863777 61.9810771,37.9498839 C61.9810771,35.6133901 63.4294032,34.091041 65.6593886,34.091041 C67.8893741,34.091041 69.3391557,35.6119389 69.3391557,37.9498839 C69.3391557,40.2878289 67.8893741,41.8029218 65.6593886,41.8029218 L65.6593886,41.8072755 Z M73.2066958,31.278541 C73.8355167,31.278541 74.294032,30.8605844 74.294032,30.2147833 C74.294032,29.5689822 73.8355167,29.1698916 73.2066958,29.1698916 C72.5778748,29.1698916 72.139738,29.5878483 72.139738,30.2147833 C72.139738,30.8417183 72.558952,31.2741873 73.2066958,31.2741873 L73.2066958,31.278541 Z M72.4643377,42.7433243 L73.9126638,42.7433243 L73.9126638,33.1375774 L72.4643377,33.1375774 L72.4643377,42.7433243 Z M76.0087336,42.7433243 L77.4643377,42.7433243 L77.4643377,28.7664474 L76.0087336,28.7664474 L76.0087336,42.7433243 Z M84.3056769,43.1220975 C86.4599709,43.1220975 88.2707424,42.0394737 88.8995633,40.4997098 L87.6404658,39.9874226 C87.1077147,41.0323142 85.8296943,41.8116293 84.3245997,41.8116293 C82.2474527,41.8116293 80.7030568,40.4242454 80.4934498,38.4287926 L88.588064,38.4287926 C88.6069869,38.2386803 88.6069869,38.029702 88.6069869,37.8584559 C88.5691412,34.8935759 86.7147016,32.7660604 83.8995633,32.7660604 C81.0407569,32.7660604 78.9810771,34.8935759 78.9810771,37.8453947 C78.9810771,40.8900929 81.231441,43.1133901 84.2998544,43.1133901 L84.3056769,43.1220975 Z M80.5065502,37.1517028 C80.7729258,35.3274961 82.0887918,34.091041 83.8806405,34.091041 C85.6273654,34.091041 86.8733624,35.1939822 87.0640466,37.1517028 L80.5065502,37.1517028 Z M94.8195051,43.1177438 C96.3417053,43.1424644 97.766071,42.3718709 98.5749636,41.0860101 L98.5938865,41.0860101 L98.727802,42.7404218 L100,42.7404218 L100,28.7664474 L98.5443959,28.7664474 L98.5443959,34.7528057 L98.5254731,34.7528057 C97.7224883,33.4842415 96.3121286,32.7272218 94.8078603,32.7573529 C91.9868996,32.7573529 89.9286754,34.942918 89.9286754,37.9455302 C89.9286754,40.9481424 91.9941776,43.1133901 94.8195051,43.1133901 L94.8195051,43.1177438 Z M94.9912664,41.8116293 C92.9141194,41.8116293 91.3697234,40.1586687 91.3697234,37.9542376 C91.3697234,35.7498065 92.8951965,34.0953947 94.9912664,34.0953947 C97.0873362,34.0953947 98.5938865,35.7686726 98.5938865,37.9542376 C98.5938865,40.1398026 97.069869,41.8029218 94.9912664,41.8029218 L94.9912664,41.8116293 Z" id="Shape"></path>
                </g>
            </g>
        </g>
    </g>
</svg>